/* XPM */
static char * eliot_xpm[] = {
"48 48 264 2",
"  	c None",
". 	c #E2E2E2",
"+ 	c #EFEFEF",
"@ 	c #EEEFEE",
"# 	c #EEEEEE",
"$ 	c #DBDBDB",
"% 	c #EDEEED",
"& 	c #D9DAD9",
"* 	c #FFFFFF",
"= 	c #CACACA",
"- 	c #F0F0F0",
"; 	c #BEBEBE",
"> 	c #E1E1E1",
", 	c #C7C7C7",
"' 	c #BCBCBC",
") 	c #D3D3D3",
"! 	c #A3A3A3",
"~ 	c #F9F9F9",
"{ 	c #A0A0A0",
"] 	c #C1C1C1",
"^ 	c #E0E0E0",
"/ 	c #B5B5B5",
"( 	c #D2D2D2",
"_ 	c #CDCDCD",
": 	c #B4B4B4",
"< 	c #B9B9B9",
"[ 	c #FDFDFD",
"} 	c #C3C3C3",
"| 	c #D4D4D4",
"1 	c #F5F5F5",
"2 	c #969696",
"3 	c #EDEDED",
"4 	c #A9A9A9",
"5 	c #A6A6A6",
"6 	c #BFBFBF",
"7 	c #A8A8A8",
"8 	c #E5E6E5",
"9 	c #FBFBFB",
"0 	c #E5E2E2",
"a 	c #E2DFDF",
"b 	c #E4E3E2",
"c 	c #E3E3E3",
"d 	c #DCDCDC",
"e 	c #E4E5E4",
"f 	c #E2E3E2",
"g 	c #E2E4E4",
"h 	c #CED1D2",
"i 	c #DEE1E2",
"j 	c #DEDEDE",
"k 	c #E5E5E5",
"l 	c #DFE0DF",
"m 	c #E4E4E4",
"n 	c #DFDCDC",
"o 	c #E4E4E3",
"p 	c #E0E1E0",
"q 	c #E0E4E5",
"r 	c #D5D9D9",
"s 	c #DFE1E1",
"t 	c #E4E3E3",
"u 	c #DEDBDA",
"v 	c #F6505A",
"w 	c #DF787D",
"x 	c #64C0E0",
"y 	c #1DAEE2",
"z 	c #20BEF6",
"A 	c #C3DCE4",
"B 	c #FAFAFA",
"C 	c #EAEBEA",
"D 	c #E3BBBD",
"E 	c #E19EA2",
"F 	c #E7E8E7",
"G 	c #21BDF4",
"H 	c #51BADF",
"I 	c #E0868B",
"J 	c #E3C5C6",
"K 	c #CC878C",
"L 	c #E5CFD9",
"M 	c #CFC6CA",
"N 	c #7EB9CC",
"O 	c #52ADCD",
"P 	c #59BDDF",
"Q 	c #BACACE",
"R 	c #AABAD2",
"S 	c #B5C6E3",
"T 	c #AAB8CE",
"U 	c #CEB6B6",
"V 	c #CDA4A5",
"W 	c #B2BDCE",
"X 	c #CECFCF",
"Y 	c #D1D2D1",
"Z 	c #59BCDE",
"` 	c #73B5CC",
" .	c #CFC8CB",
"..	c #CC8E93",
"+.	c #DFCCCD",
"@.	c #FF91C5",
"#.	c #E5B5CB",
"$.	c #EAEAEA",
"%.	c #2268E3",
"&.	c #1869F6",
"*.	c #3171DE",
"=.	c #5789DF",
"-.	c #DDE0E5",
";.	c #E5BED0",
">.	c #E5C6D4",
",.	c #9A9A9A",
"'.	c #CFAABB",
").	c #E5BACE",
"!.	c #CFC5CA",
"~.	c #D2D3D2",
"{.	c #CFD0CF",
"].	c #7B9BD0",
"^.	c #7FA3E1",
"/.	c #7B9BCC",
"(.	c #8DCCE1",
"_.	c #9BC1CD",
":.	c #AAC5CE",
"<.	c #7DA2CC",
"[.	c #CCCECF",
"}.	c #E3E4E3",
"|.	c #CFC9CB",
"1.	c #CFC2C8",
"2.	c #C9C9C9",
"3.	c #E5C9D6",
"4.	c #D9E2E5",
"5.	c #61BFE0",
"6.	c #86CAE1",
"7.	c #B4D7E3",
"8.	c #E5D3DB",
"9.	c #E5B1C9",
"0.	c #CFCFCF",
"a.	c #CFA4B8",
"b.	c #D298B3",
"c.	c #E5A6C3",
"d.	c #CFC7CA",
"e.	c #D4D5D4",
"f.	c #CCCFCF",
"g.	c #ACD5E3",
"h.	c #8EBDCD",
"i.	c #82BACC",
"j.	c #C3CDCF",
"k.	c #E3A5C2",
"l.	c #CFA1B7",
"m.	c #CFC3C8",
"n.	c #89BCCC",
"o.	c #C8DADF",
"p.	c #ACACAC",
"q.	c #D8DBDC",
"r.	c #EA85B5",
"s.	c #E5D5DC",
"t.	c #AFD6E3",
"u.	c #8ACBE1",
"v.	c #FD90C4",
"w.	c #E59DBF",
"x.	c #6CC2E0",
"y.	c #BBD9E3",
"z.	c #D6E1E4",
"A.	c #C6CDCF",
"B.	c #CFCCCD",
"C.	c #D2CCCE",
"D.	c #E5DEE1",
"E.	c #CF96B0",
"F.	c #E591B9",
"G.	c #E090B6",
"H.	c #C9CECF",
"I.	c #CF8DAC",
"J.	c #D18BAB",
"K.	c #E3DCDF",
"L.	c #CFCBCD",
"M.	c #C7CECF",
"N.	c #DDE0E0",
"O.	c #9F9F9F",
"P.	c #E59ABD",
"Q.	c #FA8FC2",
"R.	c #E58EB7",
"S.	c #E78AB6",
"T.	c #D6D6D6",
"U.	c #D9D9D9",
"V.	c #D694B3",
"W.	c #ED8CB9",
"X.	c #E88BB6",
"Y.	c #DADBDA",
"Z.	c #D689AD",
"`.	c #D886AC",
" +	c #EBEBEB",
".+	c #F7F8F7",
"++	c #B1C2DD",
"@+	c #1C69EF",
"#+	c #7EA0DB",
"$+	c #DFDFDF",
"%+	c #F2F3F2",
"&+	c #2568DC",
"*+	c #3370D8",
"=+	c #5888D9",
"-+	c #D7DADE",
";+	c #F5F6F5",
">+	c #90ACDC",
",+	c #9FB6DC",
"'+	c #C2C2C2",
")+	c #92B0E2",
"!+	c #A2BAE2",
"~+	c #AEBBCE",
"{+	c #447DDF",
"]+	c #7C9FCC",
"^+	c #C6DDE4",
"/+	c #487ACE",
"(+	c #507ECA",
"_+	c #BDCBCF",
":+	c #C2CCCF",
"<+	c #668ECB",
"[+	c #CACDCF",
"}+	c #CACFCF",
"|+	c #87A7CC",
"1+	c #A1B2CE",
"2+	c #E1E2E1",
"3+	c #BFDAE3",
"4+	c #7BC7E1",
"5+	c #ADADAD",
"6+	c #E2ADB0",
"7+	c #CDADAE",
"8+	c #A3C3CE",
"9+	c #73C4E0",
"0+	c #88BCCC",
"a+	c #90BFCF",
"b+	c #9DD0E2",
"c+	c #C4CDCF",
"d+	c #8CB4C8",
"e+	c #E5C2D2",
"f+	c #9FB4C6",
"g+	c #B6C9CE",
"h+	c #9CCFE0",
"i+	c #8CBDCD",
"j+	c #99C0CD",
"k+	c #CEB1B2",
"l+	c #E0D6D6",
"m+	c #E5CBD7",
"n+	c #E582B1",
"o+	c #E5B9CD",
"p+	c #E7E7E7",
"q+	c #E6E7E6",
"r+	c #CCCCCC",
"s+	c #E8E8E8",
"t+	c #F2F2F2",
"u+	c #989898",
"v+	c #FEFEFE",
"w+	c #E3E4E4",
"x+	c #F1F1F1",
"y+	c #B6B6B6",
"z+	c #DCD9D9",
"A+	c #DADADA",
"B+	c #F7F7F7",
"C+	c #E4D3D4",
"D+	c #E2D8D8",
"E+	c #D5DFE2",
"F+	c #BDCCD1",
"G+	c #CEDFE4",
"H+	c #DFE2E2",
"I+	c #E2DFDE",
"J+	c #E2DCDB",
"K+	c #D3DEE2",
"L+	c #E2D9D9",
"M+	c #F3F0F0",
"N+	c #D7D8D7",
"O+	c #CECFCE",
". + + + @ + + # + @ # + $ @ + # + + # + + % + + # + @ @ + @ # + @ @ + # + @ # + @ @ + # # + + & ",
"+ * * * = * - ; * > , * ' ) * ! ~ * { * * ] * ^ / * ( _ * : < [ } | 1 2 3 = 4 * = 5 * 6 7 * * 8 ",
"+ * 9 0 a b c d e f . g h i e j k k l e 8 f m 0 n o p f e f l e f . q r s f l e f f t a u 1 * 8 ",
"+ + 0 v v w * * 8 * * x y z A * B C * 8 * * D v v E * * 8 * * 8 * F G z H * * 8 * * I v v J * 8 ",
"@ ! 0 v v w * * 8 * * x y z A * B C * 8 * * D v v E * * 8 * * 8 * F G z H * * 8 * * I v v J * 8 ",
"+ * b w w K L L M 8 8 N O P Q 8 p R S T 8 8 U w w V 8 8 W S S X 8 Y Z P ` 8 8  .L L ..w w +.* 8 ",
"+ , 8 * * L @.@.#.* * 8 $.* 8 * B %.&.*.* * 8 * * 8 * * =.&.&.-.* F [ * 8 * * ;.@.@.>.* * 8 * 8 ",
"+ ,.8 * * L @.@.#.* * 8 $.* 8 * B %.&.*.* * 8 * * 8 * * =.&.&.-.* F [ * 8 * * ;.@.@.>.* * 8 * 8 ",
"+ * e 8 8 M #.#.'.).).!.~.8 {.8 p ].^./.(.(._.8 8 :.(.(.<.^.^.[.8 Y }.8 |.).).'.#.#.1.8 8 p * 8 ",
"+ 2.f * * 8 * * ).@.@.3.$.* 8 * B C * 4.z z 5.* * 6.z z 7.* * 8 * F [ * 8.@.@.9.* * 8 * * 8 * 8 ",
"+ 0.f * * 8 * * ).@.@.3.$.* 8 * B C * 4.z z 5.* * 6.z z 7.* * 8 * F [ * 8.@.@.9.* * 8 * * 8 * 8 ",
"+ * g x x N 8 8 !.3.3.a.b.c.d.8 p e.8 f.g.g.h.x x i.g.g.j.8 8 {.8 Y k.c.l.3.3.m.8 8 n.x x o.* 8 ",
"+ p.q.z z P * * 8 * * c.r.@.s.* B C * 8 * * t.z z u.* * 8 * * 8 * F v.@.w.* * 8 * * x.z z y.* 8 ",
"+ 0.q z z P * * 8 * * c.r.@.s.* B C * 8 * * t.z z u.* * 8 * * 8 * F v.@.w.* * 8 * * x.z z y.* 8 ",
"+ 9 e z.z.A.8 8 {.8 8 B.C.D.E.F.G.e.8 {.8 8 f.z.z.H.8 8 {.8 8 I.F.J.K.D.L.8 8 {.8 8 M.z.z.N.* 8 ",
"+ O.8 * * 8 * * 8 * * 8 $.* P.@.Q.C * 8 * * 8 * * 8 * * 8 * * R.@.S.[ * 8 * * 8 * * 8 * * 8 * 8 ",
"+ . k 3 3 T.3 3 T.3 3 T.U.3 V.W.X.Y.3 T.3 3 T.3 3 T.3 3 T.3 3 Z.W.`. +3 T.3 3 T.3 3 T.3 3 . * 8 ",
"+ j k .+.+++@+@+#+.+.+$+c .+$+.+%+&+@+*+.+.+$+.+.+$+.+.+=+@+@+-+.+> ;+.+$+.+.+>+@+@+,+.+.+m * 8 ",
"+ '+8 * * S &.&.^.* * 8 $.* 8 * B %.&.*.* * 8 * * 8 * * =.&.&.-.* F [ * 8 * * )+&.&.!+* * 8 * 8 ",
"+ * e 8 8 ~+{+{+]+^+^+M.~.8 {.8 p /+{+(+^+^+_+8 8 :+^+^+<+{+{+[+8 Y }.8 }+^+^+|+{+{+1+8 8 p * 8 ",
"@ 0.2+* * 8 * * (.z z g.$.* 8 * B C * 4.z z 5.* * 6.z z 7.* * 8 * F [ * 3+z z 4+* * 8 * * 8 * 8 ",
"# 5+Y.* * 8 * * (.z z g.$.* 8 * B C * 4.z z 5.* * 6.z z 7.* * 8 * F [ * 3+z z 4+* * 8 * * 8 * 8 ",
"+ * o 6+6+7+8 8 8+9+9+0+a+b+c+8 p e.8 H.9+9+d+e+e+f+9+9+g+8 8 {.8 Y h+b+i+9+9+j+8 8 k+6+6+l+* 8 ",
"+ '+0 v v w * * 8 * * x y z A * B C * 8 * * m+n+n+o+$ ^ 8 p+* 8 6 q+G z H * * 8 * * I v v J * 8 ",
"+ '+0 v v w * * 8 * * x y z A * B C * 8 * * m+v.n+o+$ ^ 8 ) B 8 6 q+G z H * * 8 * * I v v J * 8 ",
"+ * o 6+6+7+8 8 8+9+9+0+a+b+c+8 p e.8 H.9+9+d+e+e+f+9+9+g+8 8 {.8 Y h+b+i+9+9+j+8 8 k+6+6+l+* 8 ",
"+ $+8 * * 8 * * (.z z g.$.* 8 * B C * 4.z z 5.* * 6.z z 7.* * 8 * F [ * 3+z z 4+* * 8 * * 8 * 8 ",
"+ # 8 * * 8 * * (.z z g.$.* 8 * B C * 4.z z 5.* * 6.z z 7.* * 8 * F [ * 3+z z 4+* * 8 * * 8 * 8 ",
"+ * e 8 8 ~+{+{+]+^+^+M.~.8 {.8 p /+{+(+^+^+_+8 8 :+^+^+<+{+{+[+8 Y }.8 }+^+^+|+{+{+1+8 8 p * 8 ",
"+ r+8 * * S &.&.^.* * 8 $.* 8 * B %.&.*.* * 8 * * 8 * * =.&.&.-.* F [ * 8 * * )+&.&.!+* * 8 * 8 ",
"+ s+k .+.+++@+@+#+.+.+$+c .+$+.+%+&+@+*+.+.+$+.+.+$+.+.+=+@+@+-+.+> ;+.+$+.+.+>+@+@+,+.+.+m * 8 ",
"+ t+}.3 3 T.3 3 T.3 3 T.U.3 V.W.X.Y.3 T.3 3 T.3 3 T.3 3 T.3 3 Z.W.`. +3 T.3 3 T.3 3 T.3 3 . * 8 ",
"+ u+2+* * 8 * * 8 * * 8 $.* P.@.Q.C * 8 * * 8 * * 8 * * 8 * * R.@.S.[ * 8 * * 8 * * 8 * * 8 * 8 ",
"+ v+w+z.z.A.8 8 {.8 8 B.C.D.E.F.G.e.8 {.8 8 f.z.z.H.8 8 {.8 8 I.F.J.K.D.L.8 8 {.8 8 M.z.z.N.* 8 ",
"+ x+q z z P * * 8 * * c.r.@.s.* B C * 8 * * t.z z u.* * 8 * * 8 * F v.@.w.* * 8 * * x.z z y.* 8 ",
"+ } q z z P * * 8 * * c.r.@.s.* B C * 8 * * t.z z u.* * 8 * * 8 * F v.@.w.* * 8 * * x.z z y.* 8 ",
"+ * g x x N 8 8 !.3.3.a.b.c.d.8 p e.8 f.g.g.h.x x i.g.g.j.8 8 {.8 Y k.c.l.3.3.m.8 8 n.x x o.* 8 ",
"# ( Y * * 8 * * ).@.@.3.$.* 8 * B C * 4.z z 5.* * 6.z z 7.* * 8 * F [ * 8.@.@.9.* * 8 * * 8 * 8 ",
"% y+r+* * 8 * * ).@.@.3.$.* 8 * B C * 4.z z 5.* * 6.z z 7.* * 8 * F [ * 8.@.@.9.* * 8 * * 8 * 8 ",
"+ * e 8 8 M #.#.'.).).!.~.8 {.8 p ].^./.(.(._.8 8 :.(.(.<.^.^.[.8 Y }.8 |.).).'.#.#.1.8 8 p * 8 ",
"+ p.8 * * L @.@.#.* * 8 $.* 8 * B %.&.*.* * 8 * * 8 * * =.&.&.-.* F [ * 8 * * ;.@.@.>.* * 8 * 8 ",
"+ = 8 * * L @.@.#.* * 8 $.* 8 * B %.&.*.* * 8 * * 8 * * =.&.&.-.* F [ * 8 * * ;.@.@.>.* * 8 * 8 ",
"+ * b w w K L L M 8 8 N O P Q 8 p R S T 8 8 U w w V 8 8 W S S X 8 Y Z P ` 8 8  .L L ..w w +.* 8 ",
"# 4 z+v v w * * 8 * * x y z A * B C * 8 * * D v v E * * 8 * * 8 * F G z H * * 8 * * I v v J * 8 ",
"+ A+0 v v w * * 8 * * x y z A * B C * 8 * * D v v E * * 8 * * 8 * F G z H * * 8 * * I v v J * 8 ",
"+ * B+C+C+D+8 8 f 8 8 E+F+G+H+8 e c 8 f 8 8 I+C+C+J+8 8 f 8 8 f 8 c G+G+K+8 8 f 8 8 L+C+C+M+* 8 ",
"+ * * * * * * * * * * * $.* * * * * * * * * * * * * * * * * * * * * * * * * * * * * * * * * * 8 ",
"N+. . . . . . . . . . . 0.. . . . . . . . . . . . . . . . . . . . . . . . . . . . . . . . . . O+"};
