/* XPM */
static char *replay_xpm[] = {
"16 16 17 1",
" 	c None",
"B	c #000000",
"C	c #800000",
"D	c #008000",
"E	c #808000",
"F	c #000080",
"G	c #800080",
"H	c #008080",
"I	c #C0C0C0",
"J	c #808080",
"K	c #FF0000",
"L	c #00FF00",
"M	c #FFFF00",
"N	c #0000FF",
"O	c #FF00FF",
"P	c #00FFFF",
"Q	c #FFFFFF",
"                ",
"            B   ",
"            BB  ",
"BBB BB BB BBBBB ",
"BBB BB BB BBBBB ",
" BB         BB  ",
" BB         B   ",
" BB             ",
" BB             ",
" BB         B   ",
" BB         BB  ",
" BBBBBBBBBBBBBB ",
" BBBBBBBBBBBBBB ",
"            BB  ",
"            B   ",
"                "
};
